HIERARCHY
ROOT hip
{
  OFFSET 0 0 0
  CHANNELS 6 Xposition Yposition Zposition Zrotation Yrotation Xrotation
  JOINT abdomen
  {
    OFFSET 0 20.6881 -0.73152
    CHANNELS 3 Zrotation Xrotation Yrotation
    JOINT chest
    {
      OFFSET 0 11.7043 -0.48768
      CHANNELS 3 Zrotation Xrotation Yrotation
      JOINT neck
      {
        OFFSET 0 22.1894 -2.19456
        CHANNELS 3 Zrotation Xrotation Yrotation
        JOINT head
        {
          OFFSET -0.24384 7.07133 1.2192
          CHANNELS 3 Zrotation Xrotation Yrotation
          JOINT leftEye
          {
            OFFSET 4.14528 8.04674 8.04672
            CHANNELS 3 Zrotation Xrotation Yrotation
            End Site
            {
              OFFSET 1 0 0
            }
          }
          JOINT rightEye
          {
            OFFSET -3.6576 8.04674 8.04672
            CHANNELS 3 Zrotation Xrotation Yrotation
            End Site
            {
              OFFSET 1 0 0
            }
          }
        }
      }
      JOINT rCollar
      {
        OFFSET -2.68224 19.2634 -4.8768
        CHANNELS 3 Zrotation Xrotation Yrotation
        JOINT rShldr
        {
          OFFSET -8.77824 -1.95073 1.46304
          CHANNELS 3 Zrotation Xrotation Yrotation
          JOINT rForeArm
          {
            OFFSET -28.1742 -1.7115 0.48768
            CHANNELS 3 Zrotation Xrotation Yrotation
            JOINT rHand
            {
              OFFSET -22.5879 0.773209 7.07136
              CHANNELS 3 Zrotation Xrotation Yrotation
              JOINT rThumb1
              {
                OFFSET -1.2192 -0.487915 3.41376
                CHANNELS 3 Zrotation Xrotation Yrotation
                JOINT rThumb2
                {
                  OFFSET -3.37035 -0.52449 3.41376
                  CHANNELS 3 Zrotation Xrotation Yrotation
                  End Site
                  {
                    OFFSET -1.78271 -1.18214 1.43049
                  }
                }
              }
              JOINT rIndex1
              {
                OFFSET -7.75947 0.938293 5.60832
                CHANNELS 3 Zrotation Xrotation Yrotation
                JOINT rIndex2
                {
                  OFFSET -2.54057 -0.884171 1.56538
                  CHANNELS 3 Zrotation Xrotation Yrotation
                  End Site
                  {
                    OFFSET -1.62519 -0.234802 1.16502
                  }
                }
              }
              JOINT rMid1
              {
                OFFSET -8.24714 1.18213 3.41376
                CHANNELS 3 Zrotation Xrotation Yrotation
                JOINT rMid2
                {
                  OFFSET -3.10165 -0.590103 1.0647
                  CHANNELS 3 Zrotation Xrotation Yrotation
                  End Site
                  {
                    OFFSET -2.48547 -0.328903 0.83742
                  }
                }
              }
              JOINT rRing1
              {
                OFFSET -8.82822 0.546677 1.51678
                CHANNELS 3 Zrotation Xrotation Yrotation
                JOINT rRing2
                {
                  OFFSET -2.60934 -0.819778 -0.0198488
                  CHANNELS 3 Zrotation Xrotation Yrotation
                  End Site
                  {
                    OFFSET -2.33842 -0.294052 0.168128
                  }
                }
              }
              JOINT rPinky1
              {
                OFFSET -8.27202 -0.0477905 -0.4584
                CHANNELS 3 Zrotation Xrotation Yrotation
                JOINT rPinky2
                {
                  OFFSET -1.82734 -0.647385 -0.700984
                  CHANNELS 3 Zrotation Xrotation Yrotation
                  End Site
                  {
                    OFFSET -1.69225 -0.51767 -0.607171
                  }
                }
              }
            }
          }
        }
      }
      JOINT lCollar
      {
        OFFSET 2.68224 19.2634 -4.8768
        CHANNELS 3 Zrotation Xrotation Yrotation
        JOINT lShldr
        {
          OFFSET 8.77824 -1.95073 1.46304
          CHANNELS 3 Zrotation Xrotation Yrotation
          JOINT lForeArm
          {
            OFFSET 28.1742 -1.7115 0.48768
            CHANNELS 3 Zrotation Xrotation Yrotation
            JOINT lHand
            {
              OFFSET 22.5879 0.773209 7.07136
              CHANNELS 3 Zrotation Xrotation Yrotation
              JOINT lThumb1
              {
                OFFSET 1.2192 -0.487915 3.41376
                CHANNELS 3 Zrotation Xrotation Yrotation
                JOINT lThumb2
                {
                  OFFSET 3.37035 -0.52449 3.41376
                  CHANNELS 3 Zrotation Xrotation Yrotation
                  End Site
                  {
                    OFFSET 1.78271 -1.18214 1.43049
                  }
                }
              }
              JOINT lIndex1
              {
                OFFSET 7.75947 0.938293 5.60832
                CHANNELS 3 Zrotation Xrotation Yrotation
                JOINT lIndex2
                {
                  OFFSET 2.54057 -0.884171 1.56538
                  CHANNELS 3 Zrotation Xrotation Yrotation
                  End Site
                  {
                    OFFSET 1.62519 -0.234802 1.16502
                  }
                }
              }
              JOINT lMid1
              {
                OFFSET 8.24714 1.18213 3.41376
                CHANNELS 3 Zrotation Xrotation Yrotation
                JOINT lMid2
                {
                  OFFSET 3.10165 -0.590103 1.0647
                  CHANNELS 3 Zrotation Xrotation Yrotation
                  End Site
                  {
                    OFFSET 2.48547 -0.328903 0.83742
                  }
                }
              }
              JOINT lRing1
              {
                OFFSET 8.82822 0.546677 1.51678
                CHANNELS 3 Zrotation Xrotation Yrotation
                JOINT lRing2
                {
                  OFFSET 2.60934 -0.819778 -0.0198488
                  CHANNELS 3 Zrotation Xrotation Yrotation
                  End Site
                  {
                    OFFSET 2.33842 -0.294052 0.168128
                  }
                }
              }
              JOINT lPinky1
              {
                OFFSET 8.27202 -0.0477905 -0.4584
                CHANNELS 3 Zrotation Xrotation Yrotation
                JOINT lPinky2
                {
                  OFFSET 1.82734 -0.647385 -0.700984
                  CHANNELS 3 Zrotation Xrotation Yrotation
                  End Site
                  {
                    OFFSET 1.69225 -0.51767 -0.607171
                  }
                }
              }
            }
          }
        }
      }
    }
  }
  JOINT rButtock
  {
    OFFSET -8.77824 4.35084 1.2192
    CHANNELS 3 Zrotation Xrotation Yrotation
    JOINT rThigh
    {
      OFFSET 0 -1.70687 -2.19456
      CHANNELS 3 Zrotation Xrotation Yrotation
      JOINT rShin
      {
        OFFSET 0 -36.8199 0.73152
        CHANNELS 3 Zrotation Xrotation Yrotation
        JOINT rFoot
        {
          OFFSET 0.73152 -45.1104 -5.12064
          CHANNELS 3 Zrotation Xrotation Yrotation
          End Site
          {
            OFFSET -1.1221 -3.69964 12.103
          }
        }
      }
    }
  }
  JOINT lButtock
  {
    OFFSET 8.77824 4.35084 1.2192
    CHANNELS 3 Zrotation Xrotation Yrotation
    JOINT lThigh
    {
      OFFSET 0 -1.70687 -2.19456
      CHANNELS 3 Zrotation Xrotation Yrotation
      JOINT lShin
      {
        OFFSET 0 -36.8199 0.73152
        CHANNELS 3 Zrotation Xrotation Yrotation
        JOINT lFoot
        {
          OFFSET -0.73152 -45.1104 -5.12064
          CHANNELS 3 Zrotation Xrotation Yrotation
          End Site
          {
            OFFSET 1.1221 -3.69964 12.103
          }
        }
      }
    }
  }
}
MOTION
Frames:	8
Frame Time:	0.00833333
52.6456 84.5589 125.25 -179.529 3.5669 183.088 3.63068 2.93236 0.449907 0.623825 -8.90668 0.41575 -5.37343 3.35639 -1.27655 8.84846 -7.76444 -0.109879 -0.0 0.0 0.0 -0.0 0.0 0.0 -4.86185e-15 6.58976e-14 -8.01343e-14 67.1792 27.3696 -20.0607 -13.4063 -6.48521 24.3671 -0.859745 25.3645 3.82017 5.26541e-10 -2.40675e-10 1.62253e-10 9.13621e-10 -4.13527e-10 2.70816e-10 5.26548e-10 -2.40678e-10 1.62248e-10 7.73091 5.47488 0.417314 5.26539e-10 -2.40679e-10 1.62256e-10 2.90554 0.965183 0.102902 5.26543e-10 -2.40683e-10 1.62255e-10 10.2786 0.731801 0.0259123 5.26535e-10 -2.40682e-10 1.62264e-10 2.22167 -0.733487 -0.20892 -4.86843e-15 6.58966e-14 -8.02954e-14 -62.5126 7.55493 18.0441 13.2968 -6.40105 -24.1492 0.747046 23.7767 -3.54967 3.0714e-10 1.15611e-10 -8.3051e-10 5.11484e-10 1.88905e-10 -1.44292e-09 3.07134e-10 1.1561e-10 -8.30506e-10 -7.73091 5.47488 -0.417314 3.07144e-10 1.15613e-10 -8.30509e-10 -2.90554 0.965183 -0.102902 3.07133e-10 1.15613e-10 -8.30512e-10 -10.2786 0.731801 -0.0259123 3.07144e-10 1.15612e-10 -8.30522e-10 -2.22167 -0.733487 0.20892 -2.03217e-16 0.0 -3.88251e-19 8.98834 -8.17902 22.057 0.0470055 22.3844 0.41889 -9.62337 -12.4469 -32.8394 2.03217e-16 0.0 3.88251e-19 -4.29702 -7.41595 -22.7367 0.107124 19.6408 -0.698324 10.6234 -14.8752 26.8592
52.6542 84.5778 125.3 -179.551 3.6454 183.165 3.61686 2.98707 0.490419 0.590827 -8.82441 0.420533 -5.38206 3.35965 -1.29052 8.93936 -7.96214 -0.132083 -0.0 0.0 0.0 -0.0 0.0 0.0 -3.43768e-15 7.67322e-14 -6.58971e-14 66.7057 27.3233 -20.1108 -13.4046 -6.48387 24.3637 -0.874585 25.5609 3.85421 6.38741e-10 -2.95747e-10 1.79307e-10 1.10811e-09 -5.0783e-10 2.97703e-10 6.38748e-10 -2.95751e-10 1.79301e-10 7.73091 5.47488 0.417314 6.3874e-10 -2.95753e-10 1.7931e-10 2.90554 0.965183 0.102902 6.38744e-10 -2.95757e-10 1.79307e-10 10.2786 0.731801 0.0259123 6.38737e-10 -2.95755e-10 1.79316e-10 2.22167 -0.733487 -0.20892 -3.4206e-15 7.67297e-14 -6.60462e-14 -61.7402 7.37658 18.126 13.3379 -6.43245 -24.2313 0.731075 23.532 -3.50882 1.53281e-10 1.25171e-10 -6.3773e-10 2.49673e-10 2.08247e-10 -1.10653e-09 1.53276e-10 1.2517e-10 -6.37727e-10 -7.73091 5.47488 -0.417314 1.53284e-10 1.25172e-10 -6.3773e-10 -2.90554 0.965183 -0.102902 1.53272e-10 1.25171e-10 -6.37733e-10 -10.2786 0.731801 -0.0259123 1.53286e-10 1.25171e-10 -6.37743e-10 -2.22167 -0.733487 0.20892 -2.03217e-16 0.0 -3.88251e-19 9.00282 -8.31317 22.0216 0.0471039 22.3841 0.418174 -9.54043 -12.3767 -32.7281 2.03217e-16 0.0 3.88251e-19 -4.23898 -7.54675 -22.613 0.107426 19.6406 -0.697124 10.595 -14.9247 26.7439
52.6688 84.5812 125.351 -179.559 3.7739 183.267 3.62371 3.05543 0.537615 0.587862 -8.78166 0.43103 -5.309 3.50353 -1.2946 8.8281 -8.3525 -0.172972 -0.0 0.0 0.0 -0.0 0.0 0.0 -7.94748e-16 4.5797e-14 -3.38081e-14 66.2508 27.456 -20.2038 -13.4059 -6.48488 24.3663 -0.874757 25.5623 3.85448 3.77843e-10 -1.86955e-10 1.29291e-10 6.55968e-10 -3.21274e-10 2.16319e-10 3.77846e-10 -1.86956e-10 1.29282e-10 7.73091 5.47488 0.417314 3.77841e-10 -1.86959e-10 1.29293e-10 2.90554 0.965183 0.102902 3.77846e-10 -1.86963e-10 1.2929e-10 10.2786 0.731801 0.0259123 3.7784e-10 -1.8696e-10 1.293e-10 2.22167 -0.733487 -0.20892 -8.13807e-16 4.57929e-14 -3.39728e-14 -60.9934 7.08302 18.3033 13.3036 -6.40613 -24.1629 0.745276 23.746 -3.54464 9.84617e-11 4.25184e-11 -4.79625e-10 1.59299e-10 6.78404e-11 -8.31797e-10 9.84548e-11 4.25176e-11 -4.79621e-10 -7.73091 5.47488 -0.417314 9.84639e-11 4.25178e-11 -4.79625e-10 -2.90554 0.965183 -0.102902 9.8452e-11 4.25172e-11 -4.79627e-10 -10.2786 0.731801 -0.0259123 9.84661e-11 4.25166e-11 -4.79636e-10 -2.22167 -0.733487 0.20892 -2.03217e-16 0.0 -3.88251e-19 9.0294 -8.42557 22.0118 0.046811 22.3678 0.417015 -9.47534 -12.3559 -32.5936 2.03217e-16 0.0 3.88251e-19 -4.17644 -7.66259 -22.4878 0.107563 19.6597 -0.69671 10.5836 -14.959 26.6806
52.6975 84.5832 125.387 -179.496 3.8811 183.335 3.6461 3.131 0.590246 0.603168 -8.76024 0.445372 -5.18146 3.73673 -1.29295 8.58408 -8.87016 -0.227777 -0.0 0.0 0.0 -0.0 0.0 0.0 3.19751e-15 -1.41608e-14 1.25234e-14 65.8182 27.7189 -20.3272 -13.4105 -6.48838 24.3752 -0.866644 25.4538 3.83571 -1.37284e-10 3.20318e-11 3.73017e-11 -2.36673e-10 5.40742e-11 6.75873e-11 -1.37286e-10 3.20342e-11 3.72906e-11 7.73091 5.47488 0.417314 -1.37286e-10 3.20299e-11 3.73039e-11 2.90554 0.965183 0.102902 -1.37279e-10 3.20265e-11 3.72998e-11 10.2786 0.731801 0.0259123 -1.37285e-10 3.20316e-11 3.73121e-11 2.22167 -0.733487 -0.20892 3.10482e-15 -1.41668e-14 1.23246e-14 -60.2704 6.74353 18.5499 13.2206 -6.3427 -23.9983 0.779602 24.2483 -3.62933 9.77959e-11 -1.04299e-10 -3.29652e-10 1.63056e-10 -1.83485e-10 -5.72028e-10 9.77868e-11 -1.04299e-10 -3.29646e-10 -7.73091 5.47488 -0.417314 9.7797e-11 -1.04302e-10 -3.29654e-10 -2.90554 0.965183 -0.102902 9.77856e-11 -1.04302e-10 -3.29653e-10 -10.2786 0.731801 -0.0259123 9.77992e-11 -1.04303e-10 -3.29662e-10 -2.22167 -0.733487 0.20892 -2.03217e-16 0.0 -3.88251e-19 9.06627 -8.52777 22.018 0.046257 22.3397 0.415509 -9.41891 -12.3658 -32.44 2.03217e-16 0.0 3.88251e-19 -4.10741 -7.77396 -22.3588 0.107587 19.6926 -0.696995 10.5857 -14.9941 26.6455
52.7296 84.5864 125.428 -179.427 3.9975 183.381 3.6792 3.21712 0.63342 0.625813 -8.74779 0.457911 -5.05519 3.97214 -1.28419 8.32589 -9.40145 -0.269467 -0.0 0.0 0.0 -0.0 0.0 0.0 5.50418e-15 -7.33982e-14 5.81096e-14 65.4037 28.0746 -20.4591 -13.4163 -6.49292 24.3869 -0.855493 25.3035 3.80976 -6.61254e-10 2.52342e-10 -5.11845e-11 -1.14455e-09 4.31601e-10 -7.48951e-11 -6.61261e-10 2.52348e-10 -5.11985e-11 7.73091 5.47488 0.417314 -6.61257e-10 2.52343e-10 -5.11834e-11 2.90554 0.965183 0.102902 -6.61248e-10 2.5234e-10 -5.11875e-11 10.2786 0.731801 0.0259123 -6.61254e-10 2.52347e-10 -5.1174e-11 2.22167 -0.733487 -0.20892 5.33425e-15 -7.34057e-14 5.78766e-14 -59.5864 6.44799 18.8202 13.138 -6.27965 -23.8352 0.813605 24.7254 -3.71061 1.01403e-10 -2.47243e-10 -1.72793e-10 1.74203e-10 -4.28222e-10 -3.00474e-10 1.01392e-10 -2.47244e-10 -1.72785e-10 -7.73091 5.47488 -0.417314 1.01403e-10 -2.47248e-10 -1.72795e-10 -2.90554 0.965183 -0.102902 1.01393e-10 -2.47248e-10 -1.72792e-10 -10.2786 0.731801 -0.0259123 1.01405e-10 -2.47249e-10 -1.728e-10 -2.22167 -0.733487 0.20892 -2.03217e-16 0.0 -3.88251e-19 9.10873 -8.62963 22.0203 0.0456388 22.3065 0.41387 -9.36018 -12.3821 -32.2728 2.03217e-16 0.0 3.88251e-19 -4.0318 -7.89033 -22.2216 0.10765 19.7342 -0.697322 10.5865 -15.0172 26.6187
52.7594 84.5882 125.487 -179.37 4.1255 183.466 3.7183 3.31713 0.652243 0.644858 -8.73197 0.462998 -4.98591 4.1227 -1.26688 8.17342 -9.83274 -0.270791 -0.0 0.0 0.0 -0.0 0.0 0.0 3.09033e-15 -1.02172e-13 8.79622e-14 65.0025 28.4864 -20.5771 -13.4216 -6.49704 24.3974 -0.846384 25.1794 3.78839 -9.48685e-10 3.65105e-10 -9.06935e-11 -1.64241e-09 6.2469e-10 -1.37532e-10 -9.48693e-10 3.65114e-10 -9.07094e-11 7.73091 5.47488 0.417314 -9.48687e-10 3.65109e-10 -9.06935e-11 2.90554 0.965183 0.102902 -9.48677e-10 3.65106e-10 -9.06975e-11 10.2786 0.731801 0.0259123 -9.48684e-10 3.65114e-10 -9.0684e-11 2.22167 -0.733487 -0.20892 2.87345e-15 -1.0218e-13 8.77137e-14 -58.959 6.28551 19.0685 13.1056 -6.25492 -23.7712 0.823494 24.8639 -3.73427 5.94032e-11 -3.18278e-10 5.97308e-12 1.06e-10 -5.48862e-10 9.60925e-12 5.93917e-11 -3.18278e-10 5.98262e-12 -7.73091 5.47488 -0.417314 5.94026e-11 -3.18284e-10 5.9699e-12 -2.90554 0.965183 -0.102902 5.93932e-11 -3.18284e-10 5.97467e-12 -10.2786 0.731801 -0.0259123 5.94046e-11 -3.18284e-10 5.96672e-12 -2.22167 -0.733487 0.20892 -2.03217e-16 0.0 -3.88251e-19 9.15197 -8.74106 21.9988 0.0451544 22.2749 0.41231 -9.28842 -12.3804 -32.0979 2.03217e-16 0.0 3.88251e-19 -3.94941 -8.02122 -22.0719 0.107902 19.7797 -0.697034 10.5712 -15.0157 26.5808
52.7856 84.5966 125.532 -179.328 4.2523 183.535 3.77318 3.42886 0.637865 0.657113 -8.68757 0.457517 -5.00823 4.13578 -1.23916 8.19045 -10.1137 -0.213881 -0.0 0.0 0.0 -0.0 0.0 0.0 -7.76706e-15 -8.31439e-14 9.46506e-14 64.6162 28.9705 -20.6633 -13.4245 -6.49933 24.4033 -0.839537 25.0856 3.77228 -8.72426e-10 3.09352e-10 -5.32133e-11 -1.5098e-09 5.2872e-10 -7.45141e-11 -8.72431e-10 3.0936e-10 -5.32303e-11 7.73091 5.47488 0.417314 -8.72428e-10 3.09356e-10 -5.32151e-11 2.90554 0.965183 0.102902 -8.72417e-10 3.09353e-10 -5.32188e-11 10.2786 0.731801 0.0259123 -8.72425e-10 3.0936e-10 -5.32076e-11 2.22167 -0.733487 -0.20892 -7.98555e-15 -8.31521e-14 9.44177e-14 -58.4024 6.28973 19.2617 13.1424 -6.28294 -23.8438 0.798224 24.5202 -3.6753 -6.56182e-11 -2.70423e-10 2.56406e-10 -1.05793e-10 -4.63949e-10 4.44851e-10 -6.56278e-11 -2.70423e-10 2.56416e-10 -7.73091 5.47488 -0.417314 -6.56187e-11 -2.70429e-10 2.56403e-10 -2.90554 0.965183 -0.102902 -6.56264e-11 -2.70429e-10 2.56407e-10 -10.2786 0.731801 -0.0259123 -6.56165e-11 -2.70429e-10 2.56399e-10 -2.22167 -0.733487 0.20892 -2.03217e-16 0.0 -3.88251e-19 9.20207 -8.85394 21.9555 0.0448242 22.2386 0.41076 -9.20268 -12.3565 -31.9232 2.03217e-16 0.0 3.88251e-19 -3.85586 -8.16508 -21.921 0.108414 19.832 -0.696121 10.5394 -14.9716 26.5482
52.8085 84.6085 125.574 -179.278 4.311 183.591 3.84289 3.55155 0.599843 0.66853 -8.6285 0.445022 -5.08576 4.06763 -1.20227 8.30339 -10.3117 -0.116632 -0.0 0.0 0.0 -0.0 0.0 0.0 -2.44781e-14 -3.53125e-14 8.73131e-14 64.2468 29.5381 -20.7351 -13.4265 -6.5009 24.4073 -0.832627 24.9906 3.75597 -5.83921e-10 1.53792e-10 3.17077e-11 -1.00923e-09 2.61505e-10 6.61793e-11 -5.83918e-10 1.53797e-10 3.16903e-11 7.73091 5.47488 0.417314 -5.83922e-10 1.53795e-10 3.17038e-11 2.90554 0.965183 0.102902 -5.8391e-10 1.53792e-10 3.17003e-11 10.2786 0.731801 0.0259123 -5.8392e-10 1.53799e-10 3.17077e-11 2.22167 -0.733487 -0.20892 -2.4673e-14 -3.53197e-14 8.71143e-14 -57.9063 6.40912 19.4313 13.2198 -6.34195 -23.9969 0.753522 23.8812 -3.56699 -2.39021e-10 -1.49577e-10 5.55244e-10 -4.01212e-10 -2.5286e-10 9.64487e-10 -2.39026e-10 -1.49577e-10 5.55253e-10 -7.73091 5.47488 -0.417314 -2.3902e-10 -1.49581e-10 5.55242e-10 -2.90554 0.965183 -0.102902 -2.39026e-10 -1.49582e-10 5.55243e-10 -10.2786 0.731801 -0.0259123 -2.39018e-10 -1.49581e-10 5.55234e-10 -2.22167 -0.733487 0.20892 -2.03217e-16 0.0 -3.88251e-19 9.25902 -8.96663 21.8986 0.0445524 22.1967 0.409151 -9.10822 -12.3228 -31.7435 2.03217e-16 0.0 3.88251e-19 -3.75249 -8.31826 -21.7671 0.109094 19.8922 -0.694878 10.4978 -14.8965 26.5243
